<svg xmlns="http://www.w3.org/2000/svg" width="13.311" height="18.251" viewBox="0 0 13.311 18.251">
  <g id="delete-photo" transform="translate(-121.874)">
    <path id="Path_4624" data-name="Path 4624" d="M176.415,245.621a.405.405,0,0,0,.405.405h10.29a.405.405,0,0,0,.405-.405V232.487h-11.1v13.134Zm7.83-10.9h1.52v8.837h-1.52Zm-3.04,0h1.52v8.837h-1.52Zm-3.04,0h1.52v8.837h-1.52Z" transform="translate(-53.436 -227.775)" fill="#205081"/>
    <path id="Path_4625" data-name="Path 4625" d="M131.946,1.863V.405A.405.405,0,0,0,131.541,0h-6.023a.405.405,0,0,0-.405.405V2.37h-2.833a.405.405,0,0,0-.405.405V3.8a.405.405,0,0,0,.405.405h12.5a.405.405,0,0,0,.405-.405V2.775a.405.405,0,0,0-.405-.405h-2.833V1.863Zm-1.52.423h-3.793V1.52h3.793v.766Z" fill="#205081"/>
  </g>
</svg>
