<svg xmlns="http://www.w3.org/2000/svg" width="19.527" height="19.523" viewBox="0 0 19.527 19.523">
  <g id="settings-gears" transform="translate(-0.001 -4.737)">
    <path id="Path_4631" data-name="Path 4631" d="M2.164,16.64a8.021,8.021,0,0,0,.717,1.7l-.866,1.092a.9.9,0,0,0,.067,1.188l1.491,1.491a.892.892,0,0,0,1.188.067l1.085-.859a7.883,7.883,0,0,0,1.771.749l.163,1.4a.894.894,0,0,0,.887.792h2.11a.894.894,0,0,0,.887-.792l.156-1.347a7.974,7.974,0,0,0,1.9-.767l1.05.831a.9.9,0,0,0,1.188-.067l1.491-1.491a.892.892,0,0,0,.067-1.188L16.7,18.4a7.789,7.789,0,0,0,.781-1.866l1.258-.145a.894.894,0,0,0,.792-.887V13.4a.894.894,0,0,0-.792-.887L17.5,12.364a7.839,7.839,0,0,0-.749-1.845l.763-.965a.9.9,0,0,0-.067-1.188L15.955,6.879a.892.892,0,0,0-1.188-.067l-.937.742a7.866,7.866,0,0,0-1.94-.813l-.141-1.212a.894.894,0,0,0-.887-.792H8.752a.894.894,0,0,0-.887.792L7.723,6.741a7.833,7.833,0,0,0-1.99.841l-.972-.77a.9.9,0,0,0-1.188.067L2.083,8.37a.892.892,0,0,0-.067,1.188l.813,1.028a7.688,7.688,0,0,0-.735,1.863l-1.3.148A.894.894,0,0,0,0,13.484v2.11a.894.894,0,0,0,.792.887Zm7.645-5.708A3.488,3.488,0,1,1,6.32,14.421,3.493,3.493,0,0,1,9.809,10.933Z" fill="#205081"/>
  </g>
</svg>
