<svg xmlns="http://www.w3.org/2000/svg" width="51.849" height="47.822" viewBox="0 0 51.849 47.822">
  <g id="book" transform="translate(0 -18.463)" opacity="0.3">
    <path id="Path_4614" data-name="Path 4614" d="M51.045,29.36a4.109,4.109,0,0,0-1.838-1.339,5.015,5.015,0,0,1-.155,1.775l-9.34,30.729a2.238,2.238,0,0,1-1.09,1.292,3.454,3.454,0,0,1-1.744.483H8.141q-3.736,0-4.483-2.179a1.419,1.419,0,0,1,.031-1.339,1.372,1.372,0,0,1,1.183-.468H31.928q2.9,0,4-1.074t2.226-4.779l8.531-28.208a4.44,4.44,0,0,0-.561-4.047,4.1,4.1,0,0,0-3.549-1.743H18.883a8.656,8.656,0,0,0-1.588.28l.031-.094a6.5,6.5,0,0,0-1.479-.171,2.081,2.081,0,0,0-1.121.359,3.6,3.6,0,0,0-.825.731,5.36,5.36,0,0,0-.607,1q-.3.608-.5,1.121t-.467,1.09a7.016,7.016,0,0,1-.514.949q-.187.249-.529.654t-.56.716a1.753,1.753,0,0,0-.28.561,2.028,2.028,0,0,0,.062.825,2.566,2.566,0,0,1,.093.794,11.805,11.805,0,0,1-.856,3A12.835,12.835,0,0,1,8.422,32.91q-.124.155-.685.7a2.491,2.491,0,0,0-.685.949q-.125.156-.016.872a4.5,4.5,0,0,1,.078,1,12.755,12.755,0,0,1-.779,2.8,19.047,19.047,0,0,1-1.308,2.864,5.1,5.1,0,0,1-.529.716,2.618,2.618,0,0,0-.529.871,2.744,2.744,0,0,0,.016.872,2.435,2.435,0,0,1-.016.934,16.9,16.9,0,0,1-.934,2.849,20.787,20.787,0,0,1-1.4,2.849,7.5,7.5,0,0,1-.513.732,7.6,7.6,0,0,0-.514.731,1.938,1.938,0,0,0-.249.654,1.547,1.547,0,0,0,.094.608,1.727,1.727,0,0,1,.093.67q-.031.435-.124,1.152t-.094.84A5.649,5.649,0,0,0,.39,60.526a8.748,8.748,0,0,0,3.1,4.094,7.62,7.62,0,0,0,4.624,1.665H36.848a6.215,6.215,0,0,0,3.814-1.354,6.425,6.425,0,0,0,2.381-3.347L51.6,33.376A4.4,4.4,0,0,0,51.045,29.36Zm-33.127.062.654-1.993a1.389,1.389,0,0,1,.514-.7,1.3,1.3,0,0,1,.794-.3H38.81a.679.679,0,0,1,.622.3.812.812,0,0,1,.063.7l-.655,1.993a1.391,1.391,0,0,1-.514.7,1.3,1.3,0,0,1-.794.3H18.6a.679.679,0,0,1-.623-.3A.812.812,0,0,1,17.918,29.422Zm-2.584,7.97.654-1.992a1.39,1.39,0,0,1,.514-.7,1.3,1.3,0,0,1,.794-.3H36.225a.678.678,0,0,1,.623.3.811.811,0,0,1,.062.7l-.654,1.992a1.388,1.388,0,0,1-.513.7,1.3,1.3,0,0,1-.794.3H16.019a.678.678,0,0,1-.622-.3A.81.81,0,0,1,15.334,37.392Z" transform="translate(0)" fill="#205081"/>
  </g>
</svg>
