<svg id="contract_1_" data-name="contract (1)" xmlns="http://www.w3.org/2000/svg" width="41.128" height="41.127" viewBox="0 0 41.128 41.127">
  <g id="Group_5637" data-name="Group 5637" transform="translate(24.036)">
    <g id="Group_5636" data-name="Group 5636">
      <path id="Path_4576" data-name="Path 4576" d="M306.475,7.022a3.593,3.593,0,0,0-1.059-2.556l-3.408-3.408A3.7,3.7,0,0,0,299.429,0h-.207V7.23h7.253V7.022Z" transform="translate(-299.222 0)" fill="#205081"/>
    </g>
  </g>
  <g id="Group_5639" data-name="Group 5639">
    <g id="Group_5638" data-name="Group 5638">
      <path id="Path_4577" data-name="Path 4577" d="M22,24.864a4.836,4.836,0,0,1,1.158-1.88l8.158-8.125V9.639H22.854a1.171,1.171,0,0,1-1.166-1.2V0H3.615A3.619,3.619,0,0,0,0,3.615v33.9a3.619,3.619,0,0,0,3.615,3.615H27.674a3.646,3.646,0,0,0,3.647-3.615V28.52L30,29.812a4.792,4.792,0,0,1-1.873,1.156l-3.831,1.279-.584.032a3.012,3.012,0,0,1-2.855-3.969ZM6.025,21.689h12.01a1.2,1.2,0,1,1,0,2.41H6.025a1.2,1.2,0,1,1,0-2.41Zm-1.2-3.615a1.2,1.2,0,0,1,1.2-1.2h12.01a1.2,1.2,0,1,1,0,2.41H6.025A1.2,1.2,0,0,1,4.82,18.074Zm0,9.639a1.2,1.2,0,0,1,1.2-1.2h12.01a1.2,1.2,0,1,1,0,2.41H6.025A1.2,1.2,0,0,1,4.82,27.713Zm18.035,6.025a1.2,1.2,0,1,1,0,2.41h-7.23a1.2,1.2,0,1,1,0-2.41ZM6.025,14.459a1.2,1.2,0,0,1,0-2.41h16.83a1.2,1.2,0,1,1,0,2.41Z" fill="#205081"/>
    </g>
  </g>
  <g id="Group_5641" data-name="Group 5641" transform="translate(23.107 25.931)">
    <g id="Group_5640" data-name="Group 5640">
      <path id="Path_4578" data-name="Path 4578" d="M288.743,322.808l-1.048,3.145a.6.6,0,0,0,.762.762l3.143-1.05Z" transform="translate(-287.663 -322.808)" fill="#205081"/>
    </g>
  </g>
  <g id="Group_5643" data-name="Group 5643" transform="translate(25.61 16.01)">
    <g id="Group_5642" data-name="Group 5642">
      <path id="Path_4579" data-name="Path 4579" d="M326.755,199.307l-7.936,7.936,3.422,3.422,7.935-7.936Z" transform="translate(-318.82 -199.307)" fill="#205081"/>
    </g>
  </g>
  <g id="Group_5645" data-name="Group 5645" transform="translate(35.249 11.884)">
    <g id="Group_5644" data-name="Group 5644">
      <path id="Path_4580" data-name="Path 4580" d="M443.989,148.618a2.516,2.516,0,0,0-3.42,0l-1.751,1.751,3.422,3.422,1.751-1.751A2.425,2.425,0,0,0,443.989,148.618Z" transform="translate(-438.819 -147.949)" fill="#205081"/>
    </g>
  </g>
  <g id="Group_5648" data-name="Group 5648" transform="translate(40.422 15.953)">
    <g id="Group_5647" data-name="Group 5647">
      <g id="Group_5646" data-name="Group 5646">
        <path id="Path_4581" data-name="Path 4581" d="M503.215,198.815h0l.007-.007Z" transform="translate(-503.215 -198.791)" fill="#205081"/>
        <path id="Path_4582" data-name="Path 4582" d="M503.3,198.686l.011-.011Z" transform="translate(-503.296 -198.669)" fill="#205081"/>
        <path id="Path_4583" data-name="Path 4583" d="M503.436,198.607Z" transform="translate(-503.418 -198.602)" fill="#205081"/>
      </g>
    </g>
  </g>
</svg>
