<svg xmlns="http://www.w3.org/2000/svg" width="44" height="48" viewBox="0 0 44 48">
  <path id="Icon" d="M39.112,48H4.891A4.851,4.851,0,0,1,0,43.2V9.6A4.852,4.852,0,0,1,4.891,4.8H15.107a7.351,7.351,0,0,1,13.787,0H39.112A4.851,4.851,0,0,1,44,9.6V43.2A4.85,4.85,0,0,1,39.112,48ZM12.223,33.6a2.4,2.4,0,1,0,0,4.8H24.446a2.4,2.4,0,1,0,0-4.8Zm0-9.6a2.4,2.4,0,1,0,0,4.8H31.779a2.4,2.4,0,1,0,0-4.8Zm0-9.6a2.4,2.4,0,1,0,0,4.8H31.779a2.4,2.4,0,1,0,0-4.8ZM22,4.8a2.4,2.4,0,1,0,2.444,2.4A2.427,2.427,0,0,0,22,4.8Z" fill="#205081" opacity="0.3"/>
</svg>
