<svg xmlns="http://www.w3.org/2000/svg" width="27.128" height="24.503" viewBox="0 0 27.128 24.503">
  <g id="menu-button-of-three-horizontal-lines" transform="translate(0 -6)">
    <path id="Path_4609" data-name="Path 4609" d="M24.5,6H2.625a2.625,2.625,0,1,0,0,5.251H24.5A2.625,2.625,0,1,0,24.5,6Z" fill="#205081"/>
    <path id="Path_4610" data-name="Path 4610" d="M24.5,50H2.625a2.625,2.625,0,1,0,0,5.251H24.5A2.625,2.625,0,1,0,24.5,50Z" transform="translate(0 -34.374)" fill="#205081"/>
    <path id="Path_4611" data-name="Path 4611" d="M24.5,94H2.625a2.625,2.625,0,1,0,0,5.251H24.5A2.625,2.625,0,1,0,24.5,94Z" transform="translate(0 -68.748)" fill="#205081"/>
  </g>
</svg>
