<svg xmlns="http://www.w3.org/2000/svg" width="21" height="19.044" viewBox="0 0 21 19.044">
  <path id="Path_4613" data-name="Path 4613" d="M33.559,23.244a2.546,2.546,0,0,0,1.771-.719l2.525,1.262a2.506,2.506,0,0,0-.031.31,2.559,2.559,0,0,0,5.117,0,2.527,2.527,0,0,0-.257-1.1l0-5.85a2.527,2.527,0,0,0,1.1.257,2.561,2.561,0,0,0,2.559-2.559,2.52,2.52,0,0,0-.128-.758l1.81-1.793a2.665,2.665,0,1,0-1.015-1.37L45.2,12.721a2.547,2.547,0,0,0-3.718,3.224l0,5.85a2.514,2.514,0,0,0-2.867.463L36.086,21a2.506,2.506,0,0,0,.031-.31,2.559,2.559,0,1,0-2.559,2.559Zm0,0" transform="translate(-31 -7.612)" fill="#fff"/>
</svg>
