<svg id="newspaper" xmlns="http://www.w3.org/2000/svg" width="43.124" height="43.125" viewBox="0 0 43.124 43.125">
  <g id="Group_5565" data-name="Group 5565">
    <path id="Path_4612" data-name="Path 4612" d="M41.584,10.781h-7.7V1.54A1.54,1.54,0,0,0,32.343,0H1.54A1.54,1.54,0,0,0,0,1.54V36.964a6.161,6.161,0,0,0,6.161,6.161h30.8a6.161,6.161,0,0,0,6.161-6.161V12.321A1.54,1.54,0,0,0,41.584,10.781ZM12.321,7.7h9.241a1.54,1.54,0,1,1,0,3.08H12.321a1.54,1.54,0,1,1,0-3.08ZM26.183,36.964H7.7a1.54,1.54,0,0,1,0-3.08H26.183a1.54,1.54,0,1,1,0,3.08Zm0-6.161H7.7a1.54,1.54,0,1,1,0-3.08H26.183a1.54,1.54,0,1,1,0,3.08Zm0-6.161H7.7a1.54,1.54,0,1,1,0-3.08H26.183a1.54,1.54,0,1,1,0,3.08Zm0-6.161H7.7a1.54,1.54,0,0,1,0-3.08H26.183a1.54,1.54,0,0,1,0,3.08ZM40.044,36.964a3.08,3.08,0,0,1-6.161,0v-23.1h6.161v23.1Z" fill="#205081"/>
  </g>
</svg>
