<svg xmlns="http://www.w3.org/2000/svg" width="48.06" height="42.806" viewBox="0 0 48.06 42.806">
  <g id="picture" transform="translate(0 -54.821)" opacity="0.3">
    <g id="Group_5576" data-name="Group 5576" transform="translate(0 54.821)">
      <path id="Path_4615" data-name="Path 4615" d="M46.883,56.131a3.671,3.671,0,0,0-2.828-1.31H4a3.672,3.672,0,0,0-2.829,1.31A4.549,4.549,0,0,0,0,59.28V93.168a4.549,4.549,0,0,0,1.176,3.149A3.672,3.672,0,0,0,4,97.627h40.05a3.671,3.671,0,0,0,2.828-1.31,4.55,4.55,0,0,0,1.177-3.149V59.28A4.549,4.549,0,0,0,46.883,56.131ZM44.855,93.168a.908.908,0,0,1-.237.627.736.736,0,0,1-.563.264H4a.735.735,0,0,1-.563-.264.909.909,0,0,1-.238-.627V59.279a.907.907,0,0,1,.238-.627A.735.735,0,0,1,4,58.388h40.05a.734.734,0,0,1,.563.264.91.91,0,0,1,.237.627V93.168Z" transform="translate(0 -54.821)" fill="#205081"/>
      <path id="Path_4616" data-name="Path 4616" d="M77.9,137.522a4.785,4.785,0,1,0-3.4-1.4A4.635,4.635,0,0,0,77.9,137.522Z" transform="translate(-66.687 -120.534)" fill="#205081"/>
      <path id="Path_4617" data-name="Path 4617" d="M85.107,186.4l-4.005-4-8.01,8.01v4.806h35.244V184L97.923,173.587Z" transform="translate(-66.684 -160.476)" fill="#205081"/>
    </g>
  </g>
</svg>
