<svg xmlns="http://www.w3.org/2000/svg" width="24" height="24" viewBox="0 0 24 24">
  <g id="Group_5566" data-name="Group 5566" transform="translate(-35.837 -1092.837)">
    <rect id="Rectangle_1501" data-name="Rectangle 1501" width="24" height="24" transform="translate(35.837 1092.837)" fill="none"/>
    <g id="newspaper" transform="translate(38.837 1095.837)">
      <g id="Group_5565" data-name="Group 5565">
        <path id="Path_4612" data-name="Path 4612" d="M17.177,4.453H14V.636A.636.636,0,0,0,13.36,0H.636A.636.636,0,0,0,0,.636V15.268a2.545,2.545,0,0,0,2.545,2.545H15.268a2.545,2.545,0,0,0,2.545-2.545V5.089A.636.636,0,0,0,17.177,4.453ZM5.089,3.181H8.907a.636.636,0,0,1,0,1.272H5.089a.636.636,0,1,1,0-1.272Zm5.726,12.088H3.181a.636.636,0,1,1,0-1.272h7.634a.636.636,0,0,1,0,1.272Zm0-2.545H3.181a.636.636,0,1,1,0-1.272h7.634a.636.636,0,1,1,0,1.272Zm0-2.545H3.181a.636.636,0,1,1,0-1.272h7.634a.636.636,0,0,1,0,1.272Zm0-2.545H3.181a.636.636,0,0,1,0-1.272h7.634a.636.636,0,0,1,0,1.272Zm5.726,7.634a1.272,1.272,0,0,1-2.545,0V5.726h2.545v9.543Z" fill="#fff"/>
      </g>
    </g>
  </g>
</svg>
