<svg id="Group_5716" data-name="Group 5716" xmlns="http://www.w3.org/2000/svg" width="27.327" height="31.794" viewBox="0 0 27.327 31.794">
  <g id="file" transform="translate(0 0)">
    <path id="Path_4627" data-name="Path 4627" d="M96.666,24.647H88.435A1.536,1.536,0,0,1,86.9,23.112V1.535A1.536,1.536,0,0,1,88.435,0H99.4V.508a1.492,1.492,0,0,0-.009.163V4.876a2.164,2.164,0,0,0,2.162,2.162h4.206c.044,0,.09,0,.134-.006h.534V23.112a1.536,1.536,0,0,1-1.535,1.535H96.666Z" transform="translate(-86.9)"/>
    <path id="Path_4628" data-name="Path 4628" d="M93.04,6.944H88.823a1.288,1.288,0,0,1-1.277-1.277V1.447A.646.646,0,0,1,88.2.8a.629.629,0,0,1,.453.192l4.85,4.85A.646.646,0,0,1,93.04,6.944Z" transform="translate(-74.178 -0.777)"/>
  </g>
  <text id="XLS" transform="translate(1.88 15.435)" fill="#fff" font-size="10" font-family="SourceSansPro-Regular, Source Sans Pro"><tspan x="0" y="0">XLS</tspan></text>
  <g id="Group_5713" data-name="Group 5713" transform="translate(17.401 18.941)">
    <g id="into-inbox-symbol" transform="translate(0)">
      <path id="Path_4630" data-name="Path 4630" d="M14.194,24.537a.248.248,0,0,1,0,.3L9.479,30.97a.25.25,0,0,1-.4,0L4.37,24.84a.25.25,0,0,1,.291-.385l3.12,1.232V18.464a.25.25,0,0,1,.25-.25h2.5a.25.25,0,0,1,.25.25v7.224l3.12-1.232A.249.249,0,0,1,14.194,24.537Z" transform="translate(-4.318 -18.214)"/>
    </g>
  </g>
</svg>
