<svg xmlns="http://www.w3.org/2000/svg" width="24" height="24" viewBox="0 0 24 24">
  <g id="Group_5477" data-name="Group 5477" transform="translate(-20.5 -676.738)">
    <rect id="Rectangle_1481" data-name="Rectangle 1481" width="24" height="24" transform="translate(20.5 676.738)" fill="none"/>
    <g id="calendar" transform="translate(17.089 678.738)">
      <g id="Group_5476" data-name="Group 5476" transform="translate(5.411)">
        <path id="Path_4592" data-name="Path 4592" d="M119.6,258.709a.467.467,0,0,0-.467-.467H117.5a.467.467,0,0,0-.467.467v1.631a.467.467,0,0,0,.467.467h1.631a.467.467,0,0,0,.467-.467v-1.631Z" transform="translate(-112.326 -247.347)" fill="#fdfefe"/>
        <path id="Path_4593" data-name="Path 4593" d="M216.236,258.709a.467.467,0,0,0-.467-.467h-1.631a.467.467,0,0,0-.467.467v1.631a.467.467,0,0,0,.467.467h1.631a.467.467,0,0,0,.467-.467Z" transform="translate(-204.884 -247.347)" fill="#fdfefe"/>
        <path id="Path_4594" data-name="Path 4594" d="M312.864,258.709a.467.467,0,0,0-.467-.467h-1.631a.467.467,0,0,0-.467.467v1.631a.467.467,0,0,0,.467.467H312.4a.467.467,0,0,0,.467-.467Z" transform="translate(-297.435 -247.347)" fill="#fdfefe"/>
        <path id="Path_4595" data-name="Path 4595" d="M119.6,355.342a.467.467,0,0,0-.467-.467H117.5a.467.467,0,0,0-.467.467v1.631a.467.467,0,0,0,.467.467h1.631a.467.467,0,0,0,.467-.467v-1.631Z" transform="translate(-112.326 -339.903)" fill="#fdfefe"/>
        <path id="Path_4596" data-name="Path 4596" d="M216.236,355.342a.467.467,0,0,0-.467-.467h-1.631a.467.467,0,0,0-.467.467v1.631a.467.467,0,0,0,.467.467h1.631a.467.467,0,0,0,.467-.467Z" transform="translate(-204.884 -339.903)" fill="#fdfefe"/>
        <path id="Path_4597" data-name="Path 4597" d="M312.864,355.342a.467.467,0,0,0-.467-.467h-1.631a.467.467,0,0,0-.467.467v1.631a.467.467,0,0,0,.467.467H312.4a.467.467,0,0,0,.467-.467v-1.631Z" transform="translate(-297.435 -339.903)" fill="#fdfefe"/>
        <path id="Path_4598" data-name="Path 4598" d="M23.756,54.151v2.491a2.035,2.035,0,0,1-2.039,2.033H20.43a2.045,2.045,0,0,1-2.051-2.033v-2.5h-5.8v2.5a2.045,2.045,0,0,1-2.051,2.033H9.243A2.035,2.035,0,0,1,7.2,56.642V54.151A1.854,1.854,0,0,0,5.411,56V70.6a1.855,1.855,0,0,0,1.846,1.857H23.7A1.857,1.857,0,0,0,25.549,70.6V56A1.854,1.854,0,0,0,23.756,54.151Zm-.6,15.535a.8.8,0,0,1-.8.8H8.564a.8.8,0,0,1-.8-.8V62.145a.8.8,0,0,1,.8-.8h13.8a.8.8,0,0,1,.8.8v7.541Z" transform="translate(-5.411 -51.858)" fill="#fdfefe"/>
        <path id="Path_4599" data-name="Path 4599" d="M80.249,5.482h1.272a.7.7,0,0,0,.7-.7V.7a.7.7,0,0,0-.7-.7H80.249a.7.7,0,0,0-.7.7V4.783A.7.7,0,0,0,80.249,5.482Z" transform="translate(-76.422)" fill="#fdfefe"/>
        <path id="Path_4600" data-name="Path 4600" d="M345.157,5.482h1.272a.7.7,0,0,0,.7-.7V.7a.7.7,0,0,0-.7-.7h-1.272a.7.7,0,0,0-.7.7V4.783A.7.7,0,0,0,345.157,5.482Z" transform="translate(-330.154)" fill="#fdfefe"/>
      </g>
    </g>
  </g>
</svg>
