<svg xmlns="http://www.w3.org/2000/svg" width="24" height="24" viewBox="0 0 24 24">
  <g id="Group_5427" data-name="Group 5427" transform="translate(-18 -383)">
    <g id="Group_5424" data-name="Group 5424" transform="translate(4 237)">
      <rect id="Rectangle_1473" data-name="Rectangle 1473" width="24" height="24" transform="translate(14 146)" fill="none"/>
    </g>
    <g id="Group_5426" data-name="Group 5426" transform="translate(-4.977 -3.214)">
      <path id="Icon" d="M18.75,20H1.25A1.251,1.251,0,0,1,0,18.75V17.5C0,16.478.65,15,3.749,13.753A18.593,18.593,0,0,1,10,12.5a18.593,18.593,0,0,1,6.252,1.252C19.35,15,20,16.478,20,17.5V18.75A1.251,1.251,0,0,1,18.75,20ZM10,10a5,5,0,1,1,5-5A5.007,5.007,0,0,1,10,10Z" transform="translate(23.977 388.215)" fill="#fff"/>
      <g id="Group_5425" data-name="Group 5425" transform="translate(36.123 398.427)">
        <path id="Path_4568" data-name="Path 4568" d="M344.463,375.658a4.927,4.927,0,1,0,4.927,4.927A4.927,4.927,0,0,0,344.463,375.658Zm0,5.772h.845v1.31a.845.845,0,1,1-1.691,0v-1.31h.68c-.467,0-.276-.378-.276-.845s-.191-.846.276-.846h-.68v4.96a.845.845,0,1,1,1.691,0v-4.96h-.845c.467,0,.153.379.153.845S344.93,381.43,344.463,381.43Z" transform="translate(-339.536 -375.658)" fill="#205081"/>
        <path id="Path_4567" data-name="Path 4567" d="M344.463,375.658a4.927,4.927,0,1,0,4.927,4.927A4.927,4.927,0,0,0,344.463,375.658Zm2.156,5.772h-1.31v1.31a.845.845,0,1,1-1.691,0v-1.31h-1.31a.845.845,0,0,1,0-1.691h1.31v-1.31a.845.845,0,1,1,1.691,0v1.31h1.31a.845.845,0,0,1,0,1.691Z" transform="translate(-339.536 -375.658)" fill="#fff"/>
      </g>
    </g>
  </g>
</svg>
