<svg xmlns="http://www.w3.org/2000/svg" width="24" height="24" viewBox="0 0 24 24">
  <g id="Group_5431" data-name="Group 5431" transform="translate(-19.083 -559.106)">
    <rect id="Rectangle_1478" data-name="Rectangle 1478" width="24" height="24" transform="translate(19.083 559.106)" fill="none"/>
    <g id="drop-silhouette" transform="translate(-34.257 560.106)">
      <path id="Path_4570" data-name="Path 4570" d="M69.789,6.165A54.722,54.722,0,0,0,65.578.234a.634.634,0,0,0-.984,0,54.787,54.787,0,0,0-4.211,5.932C58.364,9.5,57.34,12.257,57.34,14.36a7.747,7.747,0,0,0,15.493,0C72.833,12.256,71.809,9.5,69.789,6.165ZM66.15,19.253a5.637,5.637,0,0,1-1.4.174,5.078,5.078,0,0,1-5.249-4.876,6.232,6.232,0,0,1,.509-2.254.331.331,0,0,1,.38-.19.306.306,0,0,1,.251.326,4.905,4.905,0,0,0-.03.527,5.9,5.9,0,0,0,5.484,5.7.315.315,0,0,1,.289.277A.306.306,0,0,1,66.15,19.253Z" fill="#fff"/>
    </g>
  </g>
</svg>
