<svg xmlns="http://www.w3.org/2000/svg" width="24" height="24" viewBox="0 0 24 24">
  <g id="Group_5418" data-name="Group 5418" transform="translate(-14 -146)">
    <rect id="Rectangle_1473" data-name="Rectangle 1473" width="24" height="24" transform="translate(14 146)" fill="none"/>
    <path id="Icon" d="M154.875,4120H139.125a1.126,1.126,0,0,1-1.125-1.125v-1.124c0-.921.585-2.254,3.374-3.374a14.615,14.615,0,0,1,11.253,0c2.788,1.12,3.373,2.452,3.373,3.374v1.124A1.126,1.126,0,0,1,154.875,4120ZM147,4111a4.5,4.5,0,1,1,4.5-4.5A4.506,4.506,0,0,1,147,4111Z" transform="translate(-121 -3953)" fill="#fff"/>
  </g>
</svg>
