<svg xmlns="http://www.w3.org/2000/svg" width="24" height="24" viewBox="0 0 24 24">
  <g id="Group_5430" data-name="Group 5430" transform="translate(-20.5 -504.5)">
    <rect id="Rectangle_1477" data-name="Rectangle 1477" width="24" height="24" transform="translate(20.5 504.5)" fill="none"/>
    <g id="share-post-symbol" transform="translate(24.497 507.5)">
      <path id="Path_4569" data-name="Path 4569" d="M16.763.362S16.531,0,15.762,0H1.348A2.212,2.212,0,0,0,.338.22S0,.33,0,.96V16.58a.468.468,0,0,0,.128.307S.116,17,.473,17H16.612a.441.441,0,0,0,.278-.1s.113,0,.113-.355V3.187c0-.415,0-1.151,0-1.981A1.348,1.348,0,0,0,16.763.362ZM15.022,6.873l-3.9,3.9a.684.684,0,0,1-.764.155.662.662,0,0,1-.443-.653V8.5a9.513,9.513,0,0,0-2.479.26A2.911,2.911,0,0,0,6,9.6q-1.173,1.317-.686,5.235a.364.364,0,0,1-.354.4.346.346,0,0,1-.277-.133,7.739,7.739,0,0,1-1.848-4.471q0-.664.055-1.223A7.652,7.652,0,0,1,3.13,8.168a4.944,4.944,0,0,1,.492-1.206A5.1,5.1,0,0,1,4.469,5.9,4.687,4.687,0,0,1,5.73,5.03a7.673,7.673,0,0,1,1.8-.564A12.171,12.171,0,0,1,9.92,4.25V2.479a.662.662,0,0,1,.443-.653.63.63,0,0,1,.764.155l3.9,3.9a.695.695,0,0,1,0,1Z" transform="translate(0)" fill="#fff"/>
    </g>
  </g>
</svg>
