<svg xmlns="http://www.w3.org/2000/svg" width="24" height="24" viewBox="0 0 24 24">
  <g id="Group_5475" data-name="Group 5475" transform="translate(-17.199 -620)">
    <rect id="Rectangle_1480" data-name="Rectangle 1480" width="24" height="24" transform="translate(17.199 620)" fill="none"/>
    <g id="worlwide" transform="translate(19 616.997)">
      <g id="Group_5444" data-name="Group 5444" transform="translate(10.815 5.003)">
        <g id="Group_5443" data-name="Group 5443" transform="translate(0 0)">
          <path id="Path_4576" data-name="Path 4576" d="M273.641,7.378A7.126,7.126,0,0,0,271.461,5V8.967h3A12.152,12.152,0,0,0,273.641,7.378Z" transform="translate(-271.461 -5.003)" fill="#fff"/>
        </g>
      </g>
      <g id="Group_5446" data-name="Group 5446" transform="translate(15.561 10.199)">
        <g id="Group_5445" data-name="Group 5445" transform="translate(0 0)">
          <path id="Path_4577" data-name="Path 4577" d="M394.247,135.415h-3.662a17.1,17.1,0,0,1,.663,4.188h4.174A10.141,10.141,0,0,0,394.247,135.415Z" transform="translate(-390.585 -135.415)" fill="#fff"/>
        </g>
      </g>
      <g id="Group_5448" data-name="Group 5448" transform="translate(10.815 10.199)">
        <g id="Group_5447" data-name="Group 5447" transform="translate(0 0)">
          <path id="Path_4578" data-name="Path 4578" d="M274.919,135.415h-3.46V139.6h4.176A15.741,15.741,0,0,0,274.919,135.415Z" transform="translate(-271.46 -135.415)" fill="#fff"/>
        </g>
      </g>
      <g id="Group_5450" data-name="Group 5450" transform="translate(0 10.199)">
        <g id="Group_5449" data-name="Group 5449" transform="translate(0 0)">
          <path id="Path_4579" data-name="Path 4579" d="M1.175,135.415A10.14,10.14,0,0,0,0,139.6H4.174a17.1,17.1,0,0,1,.663-4.188Z" transform="translate(0 -135.415)" fill="#fff"/>
        </g>
      </g>
      <g id="Group_5452" data-name="Group 5452" transform="translate(0 15.619)">
        <g id="Group_5451" data-name="Group 5451">
          <path id="Path_4580" data-name="Path 4580" d="M4.174,271.461H0a10.14,10.14,0,0,0,1.175,4.188H4.837A17.105,17.105,0,0,1,4.174,271.461Z" transform="translate(0 -271.461)" fill="#fff"/>
        </g>
      </g>
      <g id="Group_5454" data-name="Group 5454" transform="translate(1.952 21.039)">
        <g id="Group_5453" data-name="Group 5453">
          <path id="Path_4581" data-name="Path 4581" d="M53.406,409.741a13.6,13.6,0,0,1-1.1-2.235H49a10.352,10.352,0,0,0,1.022,1.189,10.157,10.157,0,0,0,4.576,2.647A10.746,10.746,0,0,1,53.406,409.741Z" transform="translate(-49.004 -407.506)" fill="#fff"/>
        </g>
      </g>
      <g id="Group_5456" data-name="Group 5456" transform="translate(12.849 5.131)">
        <g id="Group_5455" data-name="Group 5455">
          <path id="Path_4582" data-name="Path 4582" d="M327.083,10.851A10.157,10.157,0,0,0,322.507,8.2a10.742,10.742,0,0,1,1.2,1.6,13.6,13.6,0,0,1,1.1,2.235h3.3A10.358,10.358,0,0,0,327.083,10.851Z" transform="translate(-322.507 -8.204)" fill="#fff"/>
        </g>
      </g>
      <g id="Group_5458" data-name="Group 5458" transform="translate(6.583 5.003)">
        <g id="Group_5457" data-name="Group 5457" transform="translate(0 0)">
          <path id="Path_4583" data-name="Path 4583" d="M166.048,7.378a12.143,12.143,0,0,0-.82,1.588h3V5A7.125,7.125,0,0,0,166.048,7.378Z" transform="translate(-165.228 -5.003)" fill="#fff"/>
        </g>
      </g>
      <g id="Group_5460" data-name="Group 5460" transform="translate(1.952 5.131)">
        <g id="Group_5459" data-name="Group 5459">
          <path id="Path_4584" data-name="Path 4584" d="M50.027,10.852a10.356,10.356,0,0,0-1.022,1.189h3.3a13.6,13.6,0,0,1,1.1-2.235,10.737,10.737,0,0,1,1.2-1.6A10.158,10.158,0,0,0,50.027,10.852Z" transform="translate(-49.005 -8.205)" fill="#fff"/>
        </g>
      </g>
      <g id="Group_5462" data-name="Group 5462" transform="translate(10.815 15.619)">
        <g id="Group_5461" data-name="Group 5461">
          <path id="Path_4585" data-name="Path 4585" d="M271.46,271.461v4.188h3.46a15.738,15.738,0,0,0,.717-4.188Z" transform="translate(-271.46 -271.461)" fill="#fff"/>
        </g>
      </g>
      <g id="Group_5464" data-name="Group 5464" transform="translate(15.561 15.619)">
        <g id="Group_5463" data-name="Group 5463">
          <path id="Path_4586" data-name="Path 4586" d="M391.248,271.461a17.1,17.1,0,0,1-.663,4.188h3.662a10.139,10.139,0,0,0,1.175-4.188Z" transform="translate(-390.585 -271.461)" fill="#fff"/>
        </g>
      </g>
      <g id="Group_5466" data-name="Group 5466" transform="translate(12.849 21.039)">
        <g id="Group_5465" data-name="Group 5465">
          <path id="Path_4587" data-name="Path 4587" d="M324.8,407.506h0a13.6,13.6,0,0,1-1.1,2.235,10.739,10.739,0,0,1-1.2,1.6,10.157,10.157,0,0,0,4.576-2.647,10.353,10.353,0,0,0,1.022-1.189h-3.3Z" transform="translate(-322.507 -407.506)" fill="#fff"/>
        </g>
      </g>
      <g id="Group_5468" data-name="Group 5468" transform="translate(6.583 21.039)">
        <g id="Group_5467" data-name="Group 5467">
          <path id="Path_4588" data-name="Path 4588" d="M165.228,407.506a12.148,12.148,0,0,0,.82,1.588,7.125,7.125,0,0,0,2.18,2.375v-3.964h-3Z" transform="translate(-165.228 -407.506)" fill="#fff"/>
        </g>
      </g>
      <g id="Group_5470" data-name="Group 5470" transform="translate(10.815 21.039)">
        <g id="Group_5469" data-name="Group 5469">
          <path id="Path_4589" data-name="Path 4589" d="M271.459,407.505v3.964a7.124,7.124,0,0,0,2.18-2.375,12.148,12.148,0,0,0,.82-1.588Z" transform="translate(-271.459 -407.505)" fill="#fff"/>
        </g>
      </g>
      <g id="Group_5472" data-name="Group 5472" transform="translate(5.407 15.619)">
        <g id="Group_5471" data-name="Group 5471">
          <path id="Path_4590" data-name="Path 4590" d="M135.712,271.461a15.738,15.738,0,0,0,.717,4.188h3.46v-4.188Z" transform="translate(-135.712 -271.461)" fill="#fff"/>
        </g>
      </g>
      <g id="Group_5474" data-name="Group 5474" transform="translate(5.407 10.199)">
        <g id="Group_5473" data-name="Group 5473" transform="translate(0 0)">
          <path id="Path_4591" data-name="Path 4591" d="M136.429,135.415a15.74,15.74,0,0,0-.717,4.188h4.176v-4.188Z" transform="translate(-135.712 -135.415)" fill="#fff"/>
        </g>
      </g>
    </g>
  </g>
</svg>
